solid holder_mod
facet normal -0.594655842522411 0.794853780538408 0.120796922633657
outer loop
vertex 2.49768809658914 -3.36059243354545 9.29
vertex 2.59369083740266 -2.04028621520939 2.0
vertex 1.97724803530022 -2.64206173412004 2.0
endloop
endfacet
facet normal -0.780398966478659 0.613616082730718 0.120219616258121
outer loop
vertex 2.59369083740266 -2.04028621520939 2.0
vertex 2.49768809658914 -3.36059243354545 9.29
vertex 3.27593293140131 -2.60086470582871 9.29
endloop
endfacet
facet normal -0.922150084207169 -0.368739925668408 0.116919157603743
outer loop
vertex 3.86941612218899 1.52282093130385 9.29
vertex 2.64206173412004 1.97724803530022 2.0
vertex 3.06378511206387 1.22605904714895 2.0
endloop
endfacet
facet normal -0.795065046015737 -0.595303505746942 0.116126261669763
outer loop
vertex 2.64206173412004 1.97724803530022 2.0
vertex 3.86941612218899 1.52282093130385 9.29
vertex 3.33700007404154 2.47117972145055 9.29
endloop
endfacet
facet normal -0.614278447637057 -0.780596169919737 0.115462583875663
outer loop
vertex 2.5772723463248 3.24942455626272 9.29
vertex 1.29946856246461 3.03337789521289 2.0
vertex 2.04028621520939 2.59369083740266 2.0
endloop
endfacet
facet normal -0.391049733905325 -0.913160547711477 0.114969212034574
outer loop
vertex 1.29946856246461 3.03337789521289 2.0
vertex 2.5772723463248 3.24942455626272 9.29
vertex 1.64200712817323 3.80451933635831 9.29
endloop
endfacet
facet normal 0.390771013966911 0.912500267043988 0.12100114581244
outer loop
vertex -1.63909111253855 -3.85462007100081 9.29
vertex -0.470094274661208 -3.26634526235834 2.0
vertex -1.29946856246461 -3.03337789521288 2.0
endloop
endfacet
facet normal 0.141457691432782 0.98248618331639 0.121287349409987
outer loop
vertex -0.470094274661208 -3.26634526235834 2.0
vertex -1.63909111253855 -3.85462007100081 9.29
vertex -0.592025182970345 -4.1487360044538 9.29
endloop
endfacet
facet normal 0.986018659555875 0.117465904352458 0.118190373221742
outer loop
vertex -3.27671659776484 -0.39131616109284 2.0
vertex -4.12222762931521 0.568432823466436 9.29
vertex -4.13532120131035 -0.519078004776608 9.29
endloop
endfacet
facet normal 0.983005614840007 -0.141199416777058 0.117314474362025
outer loop
vertex -4.12222762931521 0.568432823466436 9.29
vertex -3.27671659776484 -0.39131616109284 2.0
vertex -3.26634526235834 0.470094274661206 2.0
endloop
endfacet
facet normal -0.141567966935438 -0.983263172288762 0.114682364635571
outer loop
vertex 0.594941198605026 4.09863526981131 9.29
vertex -0.391316161092842 3.27671659776484 2.0
vertex 0.470094274661206 3.26634526235834 2.0
endloop
endfacet
facet normal 0.117781881076984 -0.986402330098106 0.114620555167889
outer loop
vertex -0.391316161092842 3.27671659776484 2.0
vertex 0.594941198605026 4.09863526981131 9.29
vertex -0.49256962963802 4.11172884180644 9.29
endloop
endfacet
facet normal -0.98276966014243 0.141715949730322 0.118660796793067
outer loop
vertex 4.12514364494989 -0.618533558108932 9.29
vertex 3.03337789521288 -1.29946856246461 2.0
vertex 3.8310277114969 -1.66559948767714 9.29
endloop
endfacet
facet normal -0.912720397123192 0.390721729861664 0.119490612556773
outer loop
vertex 3.03337789521288 -1.29946856246461 2.0
vertex 4.12514364494989 -0.618533558108932 9.29
vertex 3.26634526235834 -0.470094274661206 2.0
endloop
endfacet
facet normal -0.795347007220569 -0.594926482618594 0.11612759527499
outer loop
vertex 3.33700007404154 2.47117972145055 9.29
vertex 2.04028621520939 2.59369083740266 2.0
vertex 2.64206173412004 1.97724803530022 2.0
endloop
endfacet
facet normal -0.613984379953705 -0.780827617004059 0.115461741267948
outer loop
vertex 2.04028621520939 2.59369083740266 2.0
vertex 3.33700007404154 2.47117972145055 9.29
vertex 2.5772723463248 3.24942455626272 9.29
endloop
endfacet
facet normal -0.391281453343073 -0.913061233775432 0.114969594442267
outer loop
vertex 1.64200712817323 3.80451933635831 9.29
vertex 0.470094274661206 3.26634526235834 2.0
vertex 1.29946856246461 3.03337789521289 2.0
endloop
endfacet
facet normal -0.141456347153639 -0.983279245505483 0.114682288118596
outer loop
vertex 0.470094274661206 3.26634526235834 2.0
vertex 1.64200712817323 3.80451933635831 9.29
vertex 0.594941198605026 4.09863526981131 9.29
endloop
endfacet
facet normal -0.986065741278896 -0.117479659352051 0.1177832055712
outer loop
vertex 4.13823721694503 0.468977270134112 9.29
vertex 3.26634526235834 -0.470094274661206 2.0
vertex 4.12514364494989 -0.618533558108932 9.29
endloop
endfacet
facet normal -0.982848615225416 0.141168874441178 0.118658958526078
outer loop
vertex 3.26634526235834 -0.470094274661206 2.0
vertex 4.13823721694503 0.468977270134112 9.29
vertex 3.27671659776484 0.391316161092841 2.0
endloop
endfacet
facet normal 0.11781590483447 -0.986398266057668 0.114620562232351
outer loop
vertex -0.49256962963802 4.11172884180644 9.29
vertex -1.22605904714894 3.06378511206387 2.0
vertex -0.391316161092842 3.27671659776484 2.0
endloop
endfacet
facet normal 0.368992965491189 -0.922316569434098 0.114788227468393
outer loop
vertex -1.22605904714894 3.06378511206387 2.0
vertex -0.49256962963802 4.11172884180644 9.29
vertex -1.54641329080775 3.8429077470504 9.29
endloop
endfacet
facet normal -0.986065741278896 -0.117479659352051 0.1177832055712
outer loop
vertex 4.13823721694503 0.468977270134112 9.29
vertex 3.06378511206387 1.22605904714895 2.0
vertex 3.27671659776484 0.391316161092841 2.0
endloop
endfacet
facet normal -0.92195141049303 -0.369236929817025 0.116917433897648
outer loop
vertex 3.06378511206387 1.22605904714895 2.0
vertex 4.13823721694503 0.468977270134112 9.29
vertex 3.86941612218899 1.52282093130385 9.29
endloop
endfacet
facet normal -0.368713245134539 0.921610292342592 0.121181730927395
outer loop
vertex 1.54932930644243 -3.8930084816929 9.29
vertex 1.97724803530022 -2.64206173412004 2.0
vertex 1.22605904714894 -3.06378511206387 2.0
endloop
endfacet
facet normal -0.594904897472564 0.794667482070208 0.120796340604146
outer loop
vertex 1.97724803530022 -2.64206173412004 2.0
vertex 1.54932930644243 -3.8930084816929 9.29
vertex 2.49768809658914 -3.36059243354545 9.29
endloop
endfacet
facet normal 0.613617968881494 0.780352758649103 0.120509586068846
outer loop
vertex -2.57435633069012 -3.29952529090521 9.29
vertex -1.29946856246461 -3.03337789521288 2.0
vertex -2.04028621520939 -2.59369083740266 2.0
endloop
endfacet
facet normal 0.391002439614055 0.912401176680477 0.121000764493195
outer loop
vertex -1.29946856246461 -3.03337789521288 2.0
vertex -2.57435633069012 -3.29952529090521 9.29
vertex -1.63909111253855 -3.85462007100081 9.29
endloop
endfacet
facet normal -0.117687598527362 0.985608465026217 0.121349012445622
outer loop
vertex 0.495485645272699 -4.16182957644894 9.29
vertex 1.22605904714894 -3.06378511206387 2.0
vertex 0.39131616109284 -3.27671659776484 2.0
endloop
endfacet
facet normal -0.3688791553438 0.921543923752387 0.121181538808102
outer loop
vertex 1.22605904714894 -3.06378511206387 2.0
vertex 0.495485645272699 -4.16182957644894 9.29
vertex 1.54932930644243 -3.8930084816929 9.29
endloop
endfacet
facet normal 0.141346242701887 0.982502213760314 0.121287425688495
outer loop
vertex -0.592025182970345 -4.1487360044538 9.29
vertex 0.39131616109284 -3.27671659776484 2.0
vertex -0.470094274661208 -3.26634526235834 2.0
endloop
endfacet
facet normal -0.117721568574473 0.985604409070863 0.121349005403586
outer loop
vertex 0.39131616109284 -3.27671659776484 2.0
vertex -0.592025182970345 -4.1487360044538 9.29
vertex 0.495485645272699 -4.16182957644894 9.29
endloop
endfacet
facet normal 0.613911809332698 0.780121742183538 0.120508745468432
outer loop
vertex -2.04028621520939 -2.59369083740266 2.0
vertex -3.33408405840686 -2.52128045609304 9.29
vertex -2.57435633069012 -3.29952529090521 9.29
endloop
endfacet
facet normal 0.79471536920827 0.595033103288986 0.119846101039798
outer loop
vertex -3.33408405840686 -2.52128045609304 9.29
vertex -2.04028621520939 -2.59369083740266 2.0
vertex -2.64206173412004 -1.97724803530022 2.0
endloop
endfacet
facet normal 0.794997334256251 0.594656598115908 0.119844769776029
outer loop
vertex -2.64206173412004 -1.97724803530022 2.0
vertex -3.86650010655431 -1.57292166594634 9.29
vertex -3.33408405840686 -2.52128045609304 9.29
endloop
endfacet
facet normal 0.921718441260013 0.36913526351949 0.119055752769905
outer loop
vertex -3.86650010655431 -1.57292166594634 9.29
vertex -2.64206173412004 -1.97724803530022 2.0
vertex -3.06378511206387 -1.22605904714894 2.0
endloop
endfacet
facet normal -0.912521509313751 0.391185534446543 0.119492144844444
outer loop
vertex 3.8310277114969 -1.66559948767714 9.29
vertex 2.59369083740266 -2.04028621520939 2.0
vertex 3.27593293140131 -2.60086470582871 9.29
endloop
endfacet
facet normal -0.780398966478659 0.613616082730718 0.120219616258121
outer loop
vertex 2.59369083740266 -2.04028621520939 2.0
vertex 3.8310277114969 -1.66559948767714 9.29
vertex 3.03337789521288 -1.29946856246461 2.0
endloop
endfacet
facet normal 0.912847483584431 -0.391333274560784 0.116480641889996
outer loop
vertex -3.03337789521288 1.29946856246461 2.0
vertex -4.12222762931521 0.568432823466436 9.29
vertex -3.26634526235834 0.470094274661206 2.0
endloop
endfacet
facet normal 0.983005614840007 -0.141199416777058 0.117314474362025
outer loop
vertex -4.12222762931521 0.568432823466436 9.29
vertex -3.03337789521288 1.29946856246461 2.0
vertex -3.82811169586222 1.61549875303465 9.29
endloop
endfacet
facet normal 0.36915910903271 -0.922250058722295 0.114788420169017
outer loop
vertex -1.54641329080775 3.8429077470504 9.29
vertex -1.97724803530022 2.64206173412004 2.0
vertex -1.22605904714894 3.06378511206387 2.0
endloop
endfacet
facet normal 0.595052400214039 -0.795391490538113 0.115173858922365
outer loop
vertex -1.97724803530022 2.64206173412004 2.0
vertex -1.54641329080775 3.8429077470504 9.29
vertex -2.49477208095445 3.31049169890295 9.29
endloop
endfacet
facet normal 0.0 0.0 -1.0
outer loop
vertex -8.21036952345708 2.19996188337143 1.0
vertex -8.21036952345708 -2.19996188337142 1.0
vertex -8.5 1.25526296912604e-015 1.0
endloop
endfacet
facet normal 0.0 0.0 -1.0
outer loop
vertex -8.21036952345708 -2.19996188337142 1.0
vertex -8.21036952345708 2.19996188337143 1.0
vertex -7.36121593216773 -4.25 1.0
endloop
endfacet
facet normal 0.0 0.0 -1.0
outer loop
vertex -7.36121593216773 -4.25 1.0
vertex -8.21036952345708 2.19996188337143 1.0
vertex -7.36121593216773 4.25 1.0
endloop
endfacet
facet normal 0.0 0.0 -1.0
outer loop
vertex -7.36121593216773 -4.25 1.0
vertex -7.36121593216773 4.25 1.0
vertex -6.01040764008566 -6.01040764008565 1.0
endloop
endfacet
facet normal 0.0 0.0 -1.0
outer loop
vertex -6.01040764008566 -6.01040764008565 1.0
vertex -7.36121593216773 4.25 1.0
vertex -6.01040764008565 6.01040764008565 1.0
endloop
endfacet
facet normal 0.0 0.0 -1.0
outer loop
vertex -6.01040764008566 -6.01040764008565 1.0
vertex -6.01040764008565 6.01040764008565 1.0
vertex -4.25 -7.36121593216773 1.0
endloop
endfacet
facet normal 0.0 0.0 -1.0
outer loop
vertex -4.25 -7.36121593216773 1.0
vertex -6.01040764008565 6.01040764008565 1.0
vertex -4.25 7.36121593216773 1.0
endloop
endfacet
facet normal 0.0 0.0 -1.0
outer loop
vertex -4.25 -7.36121593216773 1.0
vertex -4.25 7.36121593216773 1.0
vertex -2.19996188337143 -8.21036952345708 1.0
endloop
endfacet
facet normal 0.0 0.0 -1.0
outer loop
vertex -2.19996188337143 -8.21036952345708 1.0
vertex -4.25 7.36121593216773 1.0
vertex -2.19996188337143 8.21036952345708 1.0
endloop
endfacet
facet normal 0.0 0.0 -1.0
outer loop
vertex -2.19996188337143 -8.21036952345708 1.0
vertex -2.19996188337143 8.21036952345708 1.0
vertex -1.77573785876366e-015 -8.5 1.0
endloop
endfacet
facet normal 0.0 0.0 -1.0
outer loop
vertex -1.77573785876366e-015 -8.5 1.0
vertex -2.19996188337143 8.21036952345708 1.0
vertex 3.06161699786838e-016 8.5 1.0
endloop
endfacet
facet normal 0.0 0.0 -1.0
outer loop
vertex -1.77573785876366e-015 -8.5 1.0
vertex 3.06161699786838e-016 8.5 1.0
vertex 2.19996188337142 -8.21036952345708 1.0
endloop
endfacet
facet normal 0.0 0.0 -1.0
outer loop
vertex 2.19996188337142 -8.21036952345708 1.0
vertex 3.06161699786838e-016 8.5 1.0
vertex 2.19996188337143 8.21036952345708 1.0
endloop
endfacet
facet normal 0.0 0.0 -1.0
outer loop
vertex 2.19996188337142 -8.21036952345708 1.0
vertex 2.19996188337143 8.21036952345708 1.0
vertex 4.24999999999999 -7.36121593216773 1.0
endloop
endfacet
facet normal 0.0 0.0 -1.0
outer loop
vertex 4.24999999999999 -7.36121593216773 1.0
vertex 2.19996188337143 8.21036952345708 1.0
vertex 4.25 7.36121593216773 1.0
endloop
endfacet
facet normal 0.0 0.0 -1.0
outer loop
vertex 4.24999999999999 -7.36121593216773 1.0
vertex 4.25 7.36121593216773 1.0
vertex 6.01040764008565 -6.01040764008566 1.0
endloop
endfacet
facet normal 0.0 0.0 -1.0
outer loop
vertex 6.01040764008565 -6.01040764008566 1.0
vertex 4.25 7.36121593216773 1.0
vertex 6.01040764008565 6.01040764008565 1.0
endloop
endfacet
facet normal 0.0 0.0 -1.0
outer loop
vertex 6.01040764008565 -6.01040764008566 1.0
vertex 6.01040764008565 6.01040764008565 1.0
vertex 7.36121593216773 -4.25 1.0
endloop
endfacet
facet normal 0.0 0.0 -1.0
outer loop
vertex 7.36121593216773 -4.25 1.0
vertex 6.01040764008565 6.01040764008565 1.0
vertex 7.36121593216773 4.25 1.0
endloop
endfacet
facet normal 0.0 0.0 -1.0
outer loop
vertex 7.36121593216773 -4.25 1.0
vertex 7.36121593216773 4.25 1.0
vertex 8.21036952345708 -2.19996188337143 1.0
endloop
endfacet
facet normal 0.0 0.0 -1.0
outer loop
vertex 8.21036952345708 -2.19996188337143 1.0
vertex 7.36121593216773 4.25 1.0
vertex 8.21036952345708 2.19996188337143 1.0
endloop
endfacet
facet normal 0.0 0.0 -1.0
outer loop
vertex 8.21036952345708 -2.19996188337143 1.0
vertex 8.21036952345708 2.19996188337143 1.0
vertex 8.5 2.14313189850787e-016 1.0
endloop
endfacet
facet normal -0.500000000000001 -0.866025403784438 0.0
outer loop
vertex -4.25 -7.36121593216773 2.0
vertex -6.01040764008566 -6.01040764008565 1.0
vertex -4.25 -7.36121593216773 1.0
endloop
endfacet
facet normal -0.707106781186548 -0.707106781186547 0.0
outer loop
vertex -6.01040764008566 -6.01040764008565 1.0
vertex -4.25 -7.36121593216773 2.0
vertex -6.01040764008566 -6.01040764008565 2.0
endloop
endfacet
facet normal 0.25881904510252 -0.965925826289068 0.0
outer loop
vertex 2.19996188337142 -8.21036952345708 2.0
vertex -1.77573785876366e-015 -8.5 1.0
vertex 2.19996188337142 -8.21036952345708 1.0
endloop
endfacet
facet normal -3.92088835408464e-016 -1.0 0.0
outer loop
vertex -1.77573785876366e-015 -8.5 1.0
vertex 2.19996188337142 -8.21036952345708 2.0
vertex -1.77573785876366e-015 -8.5 2.0
endloop
endfacet
facet normal 0.0 0.0 1.0
outer loop
vertex -8.21036952345708 -2.19996188337142 2.0
vertex -8.21036952345708 2.19996188337143 2.0
vertex -8.5 1.25526296912604e-015 2.0
endloop
endfacet
facet normal 0.0 0.0 1.0
outer loop
vertex -8.21036952345708 2.19996188337143 2.0
vertex -8.21036952345708 -2.19996188337142 2.0
vertex -7.36121593216773 -4.25 2.0
endloop
endfacet
facet normal 0.0 0.0 1.0
outer loop
vertex -8.21036952345708 2.19996188337143 2.0
vertex -7.36121593216773 -4.25 2.0
vertex -7.36121593216773 4.25 2.0
endloop
endfacet
facet normal 0.0 0.0 1.0
outer loop
vertex -7.36121593216773 4.25 2.0
vertex -7.36121593216773 -4.25 2.0
vertex -6.99795595527437 -0.169152144650624 2.0
endloop
endfacet
facet normal 0.0 0.0 1.0
outer loop
vertex -6.99795595527437 -0.169152144650624 2.0
vertex -7.36121593216773 -4.25 2.0
vertex -6.71572659187739 -1.97459270310383 2.0
endloop
endfacet
facet normal 0.0 0.0 1.0
outer loop
vertex -6.71572659187739 -1.97459270310383 2.0
vertex -7.36121593216773 -4.25 2.0
vertex -6.01040764008566 -6.01040764008565 2.0
endloop
endfacet
facet normal 0.0 0.0 1.0
outer loop
vertex -6.71572659187739 -1.97459270310383 2.0
vertex -6.01040764008566 -6.01040764008565 2.0
vertex -5.9758315595069 -3.64546803200925 2.0
endloop
endfacet
facet normal 0.0 0.0 1.0
outer loop
vertex -5.9758315595069 -3.64546803200925 2.0
vertex -6.01040764008566 -6.01040764008565 2.0
vertex -4.25 -7.36121593216773 2.0
endloop
endfacet
facet normal 0.0 0.0 1.0
outer loop
vertex -5.9758315595069 -3.64546803200925 2.0
vertex -4.25 -7.36121593216773 2.0
vertex -4.82869348188459 -5.067910738954 2.0
endloop
endfacet
facet normal 0.0 0.0 1.0
outer loop
vertex -4.82869348188459 -5.067910738954 2.0
vertex -4.25 -7.36121593216773 2.0
vertex -3.35248792326513 -6.14498370415752 2.0
endloop
endfacet
facet normal 0.0 0.0 1.0
outer loop
vertex -3.35248792326513 -6.14498370415752 2.0
vertex -4.25 -7.36121593216773 2.0
vertex -2.19996188337143 -8.21036952345708 2.0
endloop
endfacet
facet normal 0.0 0.0 1.0
outer loop
vertex -3.35248792326513 -6.14498370415752 2.0
vertex -2.19996188337143 -8.21036952345708 2.0
vertex -1.64781585292339 -6.80328618498842 2.0
endloop
endfacet
facet normal 0.0 0.0 1.0
outer loop
vertex -1.64781585292339 -6.80328618498842 2.0
vertex -2.19996188337143 -8.21036952345708 2.0
vertex -1.77573785876366e-015 -8.5 2.0
endloop
endfacet
facet normal 0.0 0.0 1.0
outer loop
vertex -1.64781585292339 -6.80328618498842 2.0
vertex -1.77573785876366e-015 -8.5 2.0
vertex 0.169152144650623 -6.99795595527437 2.0
endloop
endfacet
facet normal 0.0 0.0 1.0
outer loop
vertex 0.169152144650623 -6.99795595527437 2.0
vertex -1.77573785876366e-015 -8.5 2.0
vertex 2.19996188337142 -8.21036952345708 2.0
endloop
endfacet
facet normal 0.0 0.0 1.0
outer loop
vertex 0.169152144650623 -6.99795595527437 2.0
vertex 2.19996188337142 -8.21036952345708 2.0
vertex 1.97459270310383 -6.71572659187739 2.0
endloop
endfacet
facet normal 0.0 0.0 1.0
outer loop
vertex 1.97459270310383 -6.71572659187739 2.0
vertex 2.19996188337142 -8.21036952345708 2.0
vertex 3.64546803200925 -5.9758315595069 2.0
endloop
endfacet
facet normal 0.0 0.0 1.0
outer loop
vertex 3.64546803200925 -5.9758315595069 2.0
vertex 2.19996188337142 -8.21036952345708 2.0
vertex 4.24999999999999 -7.36121593216773 2.0
endloop
endfacet
facet normal 0.0 0.0 1.0
outer loop
vertex 3.64546803200925 -5.9758315595069 2.0
vertex 4.24999999999999 -7.36121593216773 2.0
vertex 5.067910738954 -4.82869348188459 2.0
endloop
endfacet
facet normal 0.0 0.0 1.0
outer loop
vertex 5.067910738954 -4.82869348188459 2.0
vertex 4.24999999999999 -7.36121593216773 2.0
vertex 6.01040764008565 -6.01040764008566 2.0
endloop
endfacet
facet normal 0.0 0.0 1.0
outer loop
vertex 5.067910738954 -4.82869348188459 2.0
vertex 6.01040764008565 -6.01040764008566 2.0
vertex 6.14498370415752 -3.35248792326513 2.0
endloop
endfacet
facet normal 0.0 0.0 1.0
outer loop
vertex 6.14498370415752 -3.35248792326513 2.0
vertex 6.01040764008565 -6.01040764008566 2.0
vertex 7.36121593216773 -4.25 2.0
endloop
endfacet
facet normal 0.0 0.0 1.0
outer loop
vertex 6.14498370415752 -3.35248792326513 2.0
vertex 7.36121593216773 -4.25 2.0
vertex 6.80328618498842 -1.64781585292339 2.0
endloop
endfacet
facet normal 0.0 0.0 1.0
outer loop
vertex 6.80328618498842 -1.64781585292339 2.0
vertex 7.36121593216773 -4.25 2.0
vertex 6.99795595527437 0.169152144650628 2.0
endloop
endfacet
facet normal 0.0 0.0 1.0
outer loop
vertex -7.36121593216773 4.25 2.0
vertex -6.80328618498842 1.64781585292339 2.0
vertex -6.01040764008565 6.01040764008565 2.0
endloop
endfacet
facet normal 0.0 0.0 1.0
outer loop
vertex -6.80328618498842 1.64781585292339 2.0
vertex -7.36121593216773 4.25 2.0
vertex -6.99795595527437 -0.169152144650624 2.0
endloop
endfacet
facet normal 0.0 0.0 1.0
outer loop
vertex -6.01040764008565 6.01040764008565 2.0
vertex -6.80328618498842 1.64781585292339 2.0
vertex -6.14498370415752 3.35248792326513 2.0
endloop
endfacet
facet normal 0.0 0.0 1.0
outer loop
vertex -6.01040764008565 6.01040764008565 2.0
vertex -6.14498370415752 3.35248792326513 2.0
vertex -5.067910738954 4.82869348188459 2.0
endloop
endfacet
facet normal 0.0 0.0 1.0
outer loop
vertex -6.01040764008565 6.01040764008565 2.0
vertex -5.067910738954 4.82869348188459 2.0
vertex -4.25 7.36121593216773 2.0
endloop
endfacet
facet normal 0.0 0.0 1.0
outer loop
vertex -4.25 7.36121593216773 2.0
vertex -5.067910738954 4.82869348188459 2.0
vertex -3.64546803200925 5.97583155950689 2.0
endloop
endfacet
facet normal 0.0 0.0 1.0
outer loop
vertex -4.25 7.36121593216773 2.0
vertex -3.64546803200925 5.97583155950689 2.0
vertex -2.19996188337143 8.21036952345708 2.0
endloop
endfacet
facet normal 0.0 0.0 1.0
outer loop
vertex -2.19996188337143 8.21036952345708 2.0
vertex -3.64546803200925 5.97583155950689 2.0
vertex -1.97459270310384 6.71572659187739 2.0
endloop
endfacet
facet normal 0.0 0.0 1.0
outer loop
vertex -2.19996188337143 8.21036952345708 2.0
vertex -1.97459270310384 6.71572659187739 2.0
vertex 3.06161699786838e-016 8.5 2.0
endloop
endfacet
facet normal 0.0 0.0 1.0
outer loop
vertex 3.06161699786838e-016 8.5 2.0
vertex -1.97459270310384 6.71572659187739 2.0
vertex -0.169152144650628 6.99795595527437 2.0
endloop
endfacet
facet normal 0.0 0.0 1.0
outer loop
vertex 3.06161699786838e-016 8.5 2.0
vertex -0.169152144650628 6.99795595527437 2.0
vertex 1.64781585292339 6.80328618498842 2.0
endloop
endfacet
facet normal 0.0 0.0 1.0
outer loop
vertex 3.06161699786838e-016 8.5 2.0
vertex 1.64781585292339 6.80328618498842 2.0
vertex 2.19996188337143 8.21036952345708 2.0
endloop
endfacet
facet normal 0.0 0.0 1.0
outer loop
vertex 2.19996188337143 8.21036952345708 2.0
vertex 1.64781585292339 6.80328618498842 2.0
vertex 3.35248792326513 6.14498370415752 2.0
endloop
endfacet
facet normal 0.0 0.0 1.0
outer loop
vertex 2.19996188337143 8.21036952345708 2.0
vertex 3.35248792326513 6.14498370415752 2.0
vertex 4.25 7.36121593216773 2.0
endloop
endfacet
facet normal 0.0 0.0 1.0
outer loop
vertex 4.25 7.36121593216773 2.0
vertex 3.35248792326513 6.14498370415752 2.0
vertex 4.82869348188459 5.067910738954 2.0
endloop
endfacet
facet normal 0.0 0.0 1.0
outer loop
vertex 4.25 7.36121593216773 2.0
vertex 4.82869348188459 5.067910738954 2.0
vertex 6.01040764008565 6.01040764008565 2.0
endloop
endfacet
facet normal 0.0 0.0 1.0
outer loop
vertex 6.01040764008565 6.01040764008565 2.0
vertex 4.82869348188459 5.067910738954 2.0
vertex 5.97583155950689 3.64546803200925 2.0
endloop
endfacet
facet normal 0.0 0.0 1.0
outer loop
vertex 6.01040764008565 6.01040764008565 2.0
vertex 5.97583155950689 3.64546803200925 2.0
vertex 6.71572659187739 1.97459270310384 2.0
endloop
endfacet
facet normal 0.0 0.0 1.0
outer loop
vertex 6.01040764008565 6.01040764008565 2.0
vertex 6.71572659187739 1.97459270310384 2.0
vertex 7.36121593216773 4.25 2.0
endloop
endfacet
facet normal 0.0 0.0 1.0
outer loop
vertex 7.36121593216773 4.25 2.0
vertex 6.71572659187739 1.97459270310384 2.0
vertex 6.99795595527437 0.169152144650628 2.0
endloop
endfacet
facet normal 0.0 0.0 1.0
outer loop
vertex 7.36121593216773 4.25 2.0
vertex 6.99795595527437 0.169152144650628 2.0
vertex 7.36121593216773 -4.25 2.0
endloop
endfacet
facet normal 0.0 0.0 1.0
outer loop
vertex 7.36121593216773 4.25 2.0
vertex 7.36121593216773 -4.25 2.0
vertex 8.21036952345708 -2.19996188337143 2.0
endloop
endfacet
facet normal 0.0 0.0 1.0
outer loop
vertex 7.36121593216773 4.25 2.0
vertex 8.21036952345708 -2.19996188337143 2.0
vertex 8.21036952345708 2.19996188337143 2.0
endloop
endfacet
facet normal 0.0 0.0 1.0
outer loop
vertex 8.21036952345708 2.19996188337143 2.0
vertex 8.21036952345708 -2.19996188337143 2.0
vertex 8.5 2.14313189850787e-016 2.0
endloop
endfacet
facet normal -0.707106781186547 0.707106781186548 0.0
outer loop
vertex -6.01040764008565 6.01040764008565 2.0
vertex -7.36121593216773 4.25 1.0
vertex -7.36121593216773 4.25 2.0
endloop
endfacet
facet normal -0.866025403784438 0.5 0.0
outer loop
vertex -7.36121593216773 4.25 1.0
vertex -6.01040764008565 6.01040764008565 2.0
vertex -6.01040764008565 6.01040764008565 1.0
endloop
endfacet
facet normal -1.0 1.96044417704232e-016 0.0
outer loop
vertex -8.5 1.25526296912604e-015 2.0
vertex -8.21036952345708 -2.19996188337142 1.0
vertex -8.21036952345708 -2.19996188337142 2.0
endloop
endfacet
facet normal -0.965925826289069 -0.25881904510252 0.0
outer loop
vertex -8.21036952345708 -2.19996188337142 1.0
vertex -8.5 1.25526296912604e-015 2.0
vertex -8.5 1.25526296912604e-015 1.0
endloop
endfacet
facet normal 0.707106781186547 -0.707106781186548 0.0
outer loop
vertex 6.01040764008565 -6.01040764008566 2.0
vertex 4.24999999999999 -7.36121593216773 1.0
vertex 6.01040764008565 -6.01040764008566 1.0
endloop
endfacet
facet normal 0.499999999999999 -0.866025403784439 0.0
outer loop
vertex 4.24999999999999 -7.36121593216773 1.0
vertex 6.01040764008565 -6.01040764008566 2.0
vertex 4.24999999999999 -7.36121593216773 2.0
endloop
endfacet
facet normal 0.866025403784439 -0.5 0.0
outer loop
vertex 7.36121593216773 -4.25 1.0
vertex 6.01040764008565 -6.01040764008566 2.0
vertex 6.01040764008565 -6.01040764008566 1.0
endloop
endfacet
facet normal 0.707106781186547 -0.707106781186548 0.0
outer loop
vertex 6.01040764008565 -6.01040764008566 2.0
vertex 7.36121593216773 -4.25 1.0
vertex 7.36121593216773 -4.25 2.0
endloop
endfacet
facet normal 0.965925826289068 -0.258819045102521 0.0
outer loop
vertex 8.21036952345708 -2.19996188337143 1.0
vertex 7.36121593216773 -4.25 2.0
vertex 7.36121593216773 -4.25 1.0
endloop
endfacet
facet normal 0.866025403784439 -0.5 0.0
outer loop
vertex 7.36121593216773 -4.25 2.0
vertex 8.21036952345708 -2.19996188337143 1.0
vertex 8.21036952345708 -2.19996188337143 2.0
endloop
endfacet
facet normal 1.0 -1.1584442864341e-016 0.0
outer loop
vertex 8.5 2.14313189850787e-016 1.0
vertex 8.21036952345708 -2.19996188337143 2.0
vertex 8.21036952345708 -2.19996188337143 1.0
endloop
endfacet
facet normal 0.965925826289068 -0.258819045102521 0.0
outer loop
vertex 8.21036952345708 -2.19996188337143 2.0
vertex 8.5 2.14313189850787e-016 1.0
vertex 8.5 2.14313189850787e-016 2.0
endloop
endfacet
facet normal -0.965925826289069 -0.25881904510252 0.0
outer loop
vertex -8.21036952345708 -2.19996188337142 2.0
vertex -7.36121593216773 -4.25 1.0
vertex -7.36121593216773 -4.25 2.0
endloop
endfacet
facet normal -0.866025403784439 -0.5 0.0
outer loop
vertex -7.36121593216773 -4.25 1.0
vertex -8.21036952345708 -2.19996188337142 2.0
vertex -8.21036952345708 -2.19996188337142 1.0
endloop
endfacet
facet normal -0.866025403784439 -0.5 0.0
outer loop
vertex -7.36121593216773 -4.25 2.0
vertex -6.01040764008566 -6.01040764008565 1.0
vertex -6.01040764008566 -6.01040764008565 2.0
endloop
endfacet
facet normal -0.707106781186548 -0.707106781186547 0.0
outer loop
vertex -6.01040764008566 -6.01040764008565 1.0
vertex -7.36121593216773 -4.25 2.0
vertex -7.36121593216773 -4.25 1.0
endloop
endfacet
facet normal 0.499999999999999 -0.866025403784439 0.0
outer loop
vertex 4.24999999999999 -7.36121593216773 2.0
vertex 2.19996188337142 -8.21036952345708 1.0
vertex 4.24999999999999 -7.36121593216773 1.0
endloop
endfacet
facet normal 0.25881904510252 -0.965925826289068 0.0
outer loop
vertex 2.19996188337142 -8.21036952345708 1.0
vertex 4.24999999999999 -7.36121593216773 2.0
vertex 2.19996188337142 -8.21036952345708 2.0
endloop
endfacet
facet normal -0.258819045102521 -0.965925826289068 0.0
outer loop
vertex -2.19996188337143 -8.21036952345708 2.0
vertex -4.25 -7.36121593216773 1.0
vertex -2.19996188337143 -8.21036952345708 1.0
endloop
endfacet
facet normal -0.500000000000001 -0.866025403784438 0.0
outer loop
vertex -4.25 -7.36121593216773 1.0
vertex -2.19996188337143 -8.21036952345708 2.0
vertex -4.25 -7.36121593216773 2.0
endloop
endfacet
facet normal -0.866025403784438 0.5 0.0
outer loop
vertex -7.36121593216773 4.25 2.0
vertex -8.21036952345708 2.19996188337143 1.0
vertex -8.21036952345708 2.19996188337143 2.0
endloop
endfacet
facet normal -0.965925826289068 0.258819045102521 0.0
outer loop
vertex -8.21036952345708 2.19996188337143 1.0
vertex -7.36121593216773 4.25 2.0
vertex -7.36121593216773 4.25 1.0
endloop
endfacet
facet normal -3.92088835408464e-016 -1.0 0.0
outer loop
vertex -1.77573785876366e-015 -8.5 2.0
vertex -2.19996188337143 -8.21036952345708 1.0
vertex -1.77573785876366e-015 -8.5 1.0
endloop
endfacet
facet normal -0.258819045102521 -0.965925826289068 0.0
outer loop
vertex -2.19996188337143 -8.21036952345708 1.0
vertex -1.77573785876366e-015 -8.5 2.0
vertex -2.19996188337143 -8.21036952345708 2.0
endloop
endfacet
facet normal -0.965925826289068 0.258819045102521 0.0
outer loop
vertex -8.21036952345708 2.19996188337143 2.0
vertex -8.5 1.25526296912604e-015 1.0
vertex -8.5 1.25526296912604e-015 2.0
endloop
endfacet
facet normal -1.0 1.96044417704232e-016 0.0
outer loop
vertex -8.5 1.25526296912604e-015 1.0
vertex -8.21036952345708 2.19996188337143 2.0
vertex -8.21036952345708 2.19996188337143 1.0
endloop
endfacet
facet normal -0.707106781186547 0.707106781186548 0.0
outer loop
vertex -6.01040764008565 6.01040764008565 2.0
vertex -4.25 7.36121593216773 1.0
vertex -6.01040764008565 6.01040764008565 1.0
endloop
endfacet
facet normal -0.5 0.866025403784439 0.0
outer loop
vertex -4.25 7.36121593216773 1.0
vertex -6.01040764008565 6.01040764008565 2.0
vertex -4.25 7.36121593216773 2.0
endloop
endfacet
facet normal 0.707106781186548 0.707106781186547 0.0
outer loop
vertex 6.01040764008565 6.01040764008565 1.0
vertex 7.36121593216773 4.25 2.0
vertex 7.36121593216773 4.25 1.0
endloop
endfacet
facet normal 0.866025403784439 0.5 0.0
outer loop
vertex 7.36121593216773 4.25 2.0
vertex 6.01040764008565 6.01040764008565 1.0
vertex 6.01040764008565 6.01040764008565 2.0
endloop
endfacet
facet normal 0.5 0.866025403784439 0.0
outer loop
vertex 4.25 7.36121593216773 2.0
vertex 6.01040764008565 6.01040764008565 1.0
vertex 4.25 7.36121593216773 1.0
endloop
endfacet
facet normal 0.707106781186548 0.707106781186547 0.0
outer loop
vertex 6.01040764008565 6.01040764008565 1.0
vertex 4.25 7.36121593216773 2.0
vertex 6.01040764008565 6.01040764008565 2.0
endloop
endfacet
facet normal -0.5 0.866025403784439 0.0
outer loop
vertex -4.25 7.36121593216773 2.0
vertex -2.19996188337143 8.21036952345708 1.0
vertex -4.25 7.36121593216773 1.0
endloop
endfacet
facet normal -0.258819045102521 0.965925826289068 0.0
outer loop
vertex -2.19996188337143 8.21036952345708 1.0
vertex -4.25 7.36121593216773 2.0
vertex -2.19996188337143 8.21036952345708 2.0
endloop
endfacet
facet normal 0.258819045102521 0.965925826289068 0.0
outer loop
vertex 2.19996188337143 8.21036952345708 2.0
vertex 4.25 7.36121593216773 1.0
vertex 2.19996188337143 8.21036952345708 1.0
endloop
endfacet
facet normal 0.5 0.866025403784439 0.0
outer loop
vertex 4.25 7.36121593216773 1.0
vertex 2.19996188337143 8.21036952345708 2.0
vertex 4.25 7.36121593216773 2.0
endloop
endfacet
facet normal -0.0 -0.0 1.0
outer loop
vertex -3.35248792326513 -6.14498370415752 9.29
vertex -4.13532120131035 -0.519078004776608 9.29
vertex -4.82869348188459 -5.067910738954 9.29
endloop
endfacet
facet normal -0.0 -0.0 1.0
outer loop
vertex -4.13532120131035 -0.519078004776608 9.29
vertex -3.35248792326513 -6.14498370415752 9.29
vertex -3.86650010655431 -1.57292166594634 9.29
endloop
endfacet
facet normal -0.0 -0.0 1.0
outer loop
vertex -3.86650010655431 -1.57292166594634 9.29
vertex -3.35248792326513 -6.14498370415752 9.29
vertex -3.33408405840686 -2.52128045609304 9.29
endloop
endfacet
facet normal -0.0 -0.0 1.0
outer loop
vertex -3.33408405840686 -2.52128045609304 9.29
vertex -3.35248792326513 -6.14498370415752 9.29
vertex -1.64781585292339 -6.80328618498842 9.29
endloop
endfacet
facet normal -0.0 -0.0 1.0
outer loop
vertex -3.33408405840686 -2.52128045609304 9.29
vertex -1.64781585292339 -6.80328618498842 9.29
vertex -2.57435633069012 -3.29952529090521 9.29
endloop
endfacet
facet normal -0.0 -0.0 1.0
outer loop
vertex -2.57435633069012 -3.29952529090521 9.29
vertex -1.64781585292339 -6.80328618498842 9.29
vertex -1.63909111253855 -3.85462007100081 9.29
endloop
endfacet
facet normal -0.0 -0.0 1.0
outer loop
vertex -1.63909111253855 -3.85462007100081 9.29
vertex -1.64781585292339 -6.80328618498842 9.29
vertex 0.169152144650623 -6.99795595527437 9.29
endloop
endfacet
facet normal -0.0 -0.0 1.0
outer loop
vertex -1.63909111253855 -3.85462007100081 9.29
vertex 0.169152144650623 -6.99795595527437 9.29
vertex -0.592025182970345 -4.1487360044538 9.29
endloop
endfacet
facet normal -0.0 -0.0 1.0
outer loop
vertex -0.592025182970345 -4.1487360044538 9.29
vertex 0.169152144650623 -6.99795595527437 9.29
vertex 0.495485645272699 -4.16182957644894 9.29
endloop
endfacet
facet normal -0.0 -0.0 1.0
outer loop
vertex 0.495485645272699 -4.16182957644894 9.29
vertex 0.169152144650623 -6.99795595527437 9.29
vertex 1.97459270310383 -6.71572659187739 9.29
endloop
endfacet
facet normal -0.0 -0.0 1.0
outer loop
vertex 0.495485645272699 -4.16182957644894 9.29
vertex 1.97459270310383 -6.71572659187739 9.29
vertex 1.54932930644243 -3.8930084816929 9.29
endloop
endfacet
facet normal -0.0 -0.0 1.0
outer loop
vertex 1.54932930644243 -3.8930084816929 9.29
vertex 1.97459270310383 -6.71572659187739 9.29
vertex 2.49768809658914 -3.36059243354545 9.29
endloop
endfacet
facet normal -0.0 -0.0 1.0
outer loop
vertex 2.49768809658914 -3.36059243354545 9.29
vertex 1.97459270310383 -6.71572659187739 9.29
vertex 3.64546803200925 -5.9758315595069 9.29
endloop
endfacet
facet normal -0.0 -0.0 1.0
outer loop
vertex 2.49768809658914 -3.36059243354545 9.29
vertex 3.64546803200925 -5.9758315595069 9.29
vertex 3.27593293140131 -2.60086470582871 9.29
endloop
endfacet
facet normal -0.0 -0.0 1.0
outer loop
vertex 3.27593293140131 -2.60086470582871 9.29
vertex 3.64546803200925 -5.9758315595069 9.29
vertex 3.8310277114969 -1.66559948767714 9.29
endloop
endfacet
facet normal -0.0 -0.0 1.0
outer loop
vertex 3.8310277114969 -1.66559948767714 9.29
vertex 3.64546803200925 -5.9758315595069 9.29
vertex 5.067910738954 -4.82869348188459 9.29
endloop
endfacet
facet normal -0.0 -0.0 1.0
outer loop
vertex 3.8310277114969 -1.66559948767714 9.29
vertex 5.067910738954 -4.82869348188459 9.29
vertex 4.12514364494989 -0.618533558108932 9.29
endloop
endfacet
facet normal -0.0 -0.0 1.0
outer loop
vertex 4.12514364494989 -0.618533558108932 9.29
vertex 5.067910738954 -4.82869348188459 9.29
vertex 4.13823721694503 0.468977270134112 9.29
endloop
endfacet
facet normal -0.0 -0.0 1.0
outer loop
vertex 4.13823721694503 0.468977270134112 9.29
vertex 5.067910738954 -4.82869348188459 9.29
vertex 4.82869348188459 5.067910738954 9.29
endloop
endfacet
facet normal -0.0 -0.0 1.0
outer loop
vertex 4.82869348188459 5.067910738954 9.29
vertex 5.067910738954 -4.82869348188459 9.29
vertex 5.97583155950689 3.64546803200925 9.29
endloop
endfacet
facet normal -0.0 -0.0 1.0
outer loop
vertex 5.97583155950689 3.64546803200925 9.29
vertex 5.067910738954 -4.82869348188459 9.29
vertex 6.14498370415752 -3.35248792326513 9.29
endloop
endfacet
facet normal -0.0 -0.0 1.0
outer loop
vertex 5.97583155950689 3.64546803200925 9.29
vertex 6.14498370415752 -3.35248792326513 9.29
vertex 6.71572659187739 1.97459270310384 9.29
endloop
endfacet
facet normal -0.0 -0.0 1.0
outer loop
vertex 6.71572659187739 1.97459270310384 9.29
vertex 6.14498370415752 -3.35248792326513 9.29
vertex 6.80328618498842 -1.64781585292339 9.29
endloop
endfacet
facet normal -0.0 -0.0 1.0
outer loop
vertex 6.71572659187739 1.97459270310384 9.29
vertex 6.80328618498842 -1.64781585292339 9.29
vertex 6.99795595527437 0.169152144650628 9.29
endloop
endfacet
facet normal -0.0 -0.0 1.0
outer loop
vertex -6.71572659187739 -1.97459270310383 9.29
vertex -6.80328618498842 1.64781585292339 9.29
vertex -6.99795595527437 -0.169152144650624 9.29
endloop
endfacet
facet normal -0.0 -0.0 1.0
outer loop
vertex -6.80328618498842 1.64781585292339 9.29
vertex -6.71572659187739 -1.97459270310383 9.29
vertex -6.14498370415752 3.35248792326513 9.29
endloop
endfacet
facet normal -0.0 -0.0 1.0
outer loop
vertex -6.14498370415752 3.35248792326513 9.29
vertex -6.71572659187739 -1.97459270310383 9.29
vertex -5.9758315595069 -3.64546803200925 9.29
endloop
endfacet
facet normal -0.0 -0.0 1.0
outer loop
vertex -6.14498370415752 3.35248792326513 9.29
vertex -5.9758315595069 -3.64546803200925 9.29
vertex -5.067910738954 4.82869348188459 9.29
endloop
endfacet
facet normal -0.0 -0.0 1.0
outer loop
vertex -5.067910738954 4.82869348188459 9.29
vertex -5.9758315595069 -3.64546803200925 9.29
vertex -4.82869348188459 -5.067910738954 9.29
endloop
endfacet
facet normal -0.0 -0.0 1.0
outer loop
vertex -5.067910738954 4.82869348188459 9.29
vertex -4.82869348188459 -5.067910738954 9.29
vertex -3.64546803200925 5.97583155950689 9.29
endloop
endfacet
facet normal -0.0 -0.0 1.0
outer loop
vertex -3.64546803200925 5.97583155950689 9.29
vertex -4.82869348188459 -5.067910738954 9.29
vertex -4.12222762931521 0.568432823466436 9.29
endloop
endfacet
facet normal -0.0 -0.0 1.0
outer loop
vertex -4.12222762931521 0.568432823466436 9.29
vertex -4.82869348188459 -5.067910738954 9.29
vertex -4.13532120131035 -0.519078004776608 9.29
endloop
endfacet
facet normal -0.0 -0.0 1.0
outer loop
vertex -3.64546803200925 5.97583155950689 9.29
vertex -4.12222762931521 0.568432823466436 9.29
vertex -3.82811169586222 1.61549875303465 9.29
endloop
endfacet
facet normal -0.0 -0.0 1.0
outer loop
vertex -3.64546803200925 5.97583155950689 9.29
vertex -3.82811169586222 1.61549875303465 9.29
vertex -3.27301691576662 2.55076397118621 9.29
endloop
endfacet
facet normal -0.0 -0.0 1.0
outer loop
vertex -3.64546803200925 5.97583155950689 9.29
vertex -3.27301691576662 2.55076397118621 9.29
vertex -1.97459270310384 6.71572659187739 9.29
endloop
endfacet
facet normal -0.0 -0.0 1.0
outer loop
vertex -1.97459270310384 6.71572659187739 9.29
vertex -3.27301691576662 2.55076397118621 9.29
vertex -2.49477208095445 3.31049169890295 9.29
endloop
endfacet
facet normal -0.0 -0.0 1.0
outer loop
vertex -1.97459270310384 6.71572659187739 9.29
vertex -2.49477208095445 3.31049169890295 9.29
vertex -1.54641329080775 3.8429077470504 9.29
endloop
endfacet
facet normal -0.0 -0.0 1.0
outer loop
vertex -1.97459270310384 6.71572659187739 9.29
vertex -1.54641329080775 3.8429077470504 9.29
vertex -0.169152144650628 6.99795595527437 9.29
endloop
endfacet
facet normal -0.0 -0.0 1.0
outer loop
vertex -0.169152144650628 6.99795595527437 9.29
vertex -1.54641329080775 3.8429077470504 9.29
vertex -0.49256962963802 4.11172884180644 9.29
endloop
endfacet
facet normal -0.0 -0.0 1.0
outer loop
vertex -0.169152144650628 6.99795595527437 9.29
vertex -0.49256962963802 4.11172884180644 9.29
vertex 0.594941198605026 4.09863526981131 9.29
endloop
endfacet
facet normal -0.0 -0.0 1.0
outer loop
vertex -0.169152144650628 6.99795595527437 9.29
vertex 0.594941198605026 4.09863526981131 9.29
vertex 1.64781585292339 6.80328618498842 9.29
endloop
endfacet
facet normal -0.0 -0.0 1.0
outer loop
vertex 1.64781585292339 6.80328618498842 9.29
vertex 0.594941198605026 4.09863526981131 9.29
vertex 1.64200712817323 3.80451933635831 9.29
endloop
endfacet
facet normal -0.0 -0.0 1.0
outer loop
vertex 1.64781585292339 6.80328618498842 9.29
vertex 1.64200712817323 3.80451933635831 9.29
vertex 2.5772723463248 3.24942455626272 9.29
endloop
endfacet
facet normal -0.0 -0.0 1.0
outer loop
vertex 1.64781585292339 6.80328618498842 9.29
vertex 2.5772723463248 3.24942455626272 9.29
vertex 3.35248792326513 6.14498370415752 9.29
endloop
endfacet
facet normal -0.0 -0.0 1.0
outer loop
vertex 3.35248792326513 6.14498370415752 9.29
vertex 2.5772723463248 3.24942455626272 9.29
vertex 3.33700007404154 2.47117972145055 9.29
endloop
endfacet
facet normal -0.0 -0.0 1.0
outer loop
vertex 3.35248792326513 6.14498370415752 9.29
vertex 3.33700007404154 2.47117972145055 9.29
vertex 3.86941612218899 1.52282093130385 9.29
endloop
endfacet
facet normal -0.0 -0.0 1.0
outer loop
vertex 3.35248792326513 6.14498370415752 9.29
vertex 3.86941612218899 1.52282093130385 9.29
vertex 4.82869348188459 5.067910738954 9.29
endloop
endfacet
facet normal -0.0 -0.0 1.0
outer loop
vertex 4.82869348188459 5.067910738954 9.29
vertex 3.86941612218899 1.52282093130385 9.29
vertex 4.13823721694503 0.468977270134112 9.29
endloop
endfacet
facet normal -4.45555494782345e-017 1.0 0.0
outer loop
vertex 3.06161699786838e-016 8.5 2.0
vertex 2.19996188337143 8.21036952345708 1.0
vertex 3.06161699786838e-016 8.5 1.0
endloop
endfacet
facet normal 0.258819045102521 0.965925826289068 0.0
outer loop
vertex 2.19996188337143 8.21036952345708 1.0
vertex 3.06161699786838e-016 8.5 2.0
vertex 2.19996188337143 8.21036952345708 2.0
endloop
endfacet
facet normal 0.965925826289068 0.258819045102521 0.0
outer loop
vertex 8.21036952345708 2.19996188337143 1.0
vertex 8.5 2.14313189850787e-016 2.0
vertex 8.5 2.14313189850787e-016 1.0
endloop
endfacet
facet normal 1.0 -1.1584442864341e-016 0.0
outer loop
vertex 8.5 2.14313189850787e-016 2.0
vertex 8.21036952345708 2.19996188337143 1.0
vertex 8.21036952345708 2.19996188337143 2.0
endloop
endfacet
facet normal 0.866025403784439 0.5 0.0
outer loop
vertex 7.36121593216773 4.25 1.0
vertex 8.21036952345708 2.19996188337143 2.0
vertex 8.21036952345708 2.19996188337143 1.0
endloop
endfacet
facet normal 0.965925826289068 0.258819045102521 0.0
outer loop
vertex 8.21036952345708 2.19996188337143 2.0
vertex 7.36121593216773 4.25 1.0
vertex 7.36121593216773 4.25 2.0
endloop
endfacet
facet normal -0.258819045102521 0.965925826289068 0.0
outer loop
vertex -2.19996188337143 8.21036952345708 2.0
vertex 3.06161699786838e-016 8.5 1.0
vertex -2.19996188337143 8.21036952345708 1.0
endloop
endfacet
facet normal -4.45555494782345e-017 1.0 0.0
outer loop
vertex 3.06161699786838e-016 8.5 1.0
vertex -2.19996188337143 8.21036952345708 2.0
vertex 3.06161699786838e-016 8.5 2.0
endloop
endfacet
facet normal -0.0 -0.0 1.0
outer loop
vertex -3.06378511206387 -1.22605904714894 2.0
vertex -3.26634526235834 0.470094274661206 2.0
vertex -3.27671659776484 -0.39131616109284 2.0
endloop
endfacet
facet normal -0.0 -0.0 1.0
outer loop
vertex -3.26634526235834 0.470094274661206 2.0
vertex -3.06378511206387 -1.22605904714894 2.0
vertex -3.03337789521288 1.29946856246461 2.0
endloop
endfacet
facet normal -0.0 -0.0 1.0
outer loop
vertex -3.03337789521288 1.29946856246461 2.0
vertex -3.06378511206387 -1.22605904714894 2.0
vertex -2.64206173412004 -1.97724803530022 2.0
endloop
endfacet
facet normal -0.0 -0.0 1.0
outer loop
vertex -3.03337789521288 1.29946856246461 2.0
vertex -2.64206173412004 -1.97724803530022 2.0
vertex -2.59369083740266 2.04028621520939 2.0
endloop
endfacet
facet normal -0.0 -0.0 1.0
outer loop
vertex -2.59369083740266 2.04028621520939 2.0
vertex -2.64206173412004 -1.97724803530022 2.0
vertex -2.04028621520939 -2.59369083740266 2.0
endloop
endfacet
facet normal -0.0 -0.0 1.0
outer loop
vertex -2.59369083740266 2.04028621520939 2.0
vertex -2.04028621520939 -2.59369083740266 2.0
vertex -1.97724803530022 2.64206173412004 2.0
endloop
endfacet
facet normal -0.0 -0.0 1.0
outer loop
vertex -1.97724803530022 2.64206173412004 2.0
vertex -2.04028621520939 -2.59369083740266 2.0
vertex -1.29946856246461 -3.03337789521288 2.0
endloop
endfacet
facet normal -0.0 -0.0 1.0
outer loop
vertex -1.97724803530022 2.64206173412004 2.0
vertex -1.29946856246461 -3.03337789521288 2.0
vertex -1.22605904714894 3.06378511206387 2.0
endloop
endfacet
facet normal -0.0 -0.0 1.0
outer loop
vertex -1.22605904714894 3.06378511206387 2.0
vertex -1.29946856246461 -3.03337789521288 2.0
vertex -0.470094274661208 -3.26634526235834 2.0
endloop
endfacet
facet normal -0.0 -0.0 1.0
outer loop
vertex -1.22605904714894 3.06378511206387 2.0
vertex -0.470094274661208 -3.26634526235834 2.0
vertex -0.391316161092842 3.27671659776484 2.0
endloop
endfacet
facet normal -0.0 -0.0 1.0
outer loop
vertex -0.391316161092842 3.27671659776484 2.0
vertex -0.470094274661208 -3.26634526235834 2.0
vertex 0.39131616109284 -3.27671659776484 2.0
endloop
endfacet
facet normal -0.0 -0.0 1.0
outer loop
vertex -0.391316161092842 3.27671659776484 2.0
vertex 0.39131616109284 -3.27671659776484 2.0
vertex 0.470094274661206 3.26634526235834 2.0
endloop
endfacet
facet normal -0.0 -0.0 1.0
outer loop
vertex 0.470094274661206 3.26634526235834 2.0
vertex 0.39131616109284 -3.27671659776484 2.0
vertex 1.22605904714894 -3.06378511206387 2.0
endloop
endfacet
facet normal -0.0 -0.0 1.0
outer loop
vertex 0.470094274661206 3.26634526235834 2.0
vertex 1.22605904714894 -3.06378511206387 2.0
vertex 1.29946856246461 3.03337789521289 2.0
endloop
endfacet
facet normal -0.0 -0.0 1.0
outer loop
vertex 1.29946856246461 3.03337789521289 2.0
vertex 1.22605904714894 -3.06378511206387 2.0
vertex 1.97724803530022 -2.64206173412004 2.0
endloop
endfacet
facet normal -0.0 -0.0 1.0
outer loop
vertex 1.29946856246461 3.03337789521289 2.0
vertex 1.97724803530022 -2.64206173412004 2.0
vertex 2.04028621520939 2.59369083740266 2.0
endloop
endfacet
facet normal -0.0 -0.0 1.0
outer loop
vertex 2.04028621520939 2.59369083740266 2.0
vertex 1.97724803530022 -2.64206173412004 2.0
vertex 2.59369083740266 -2.04028621520939 2.0
endloop
endfacet
facet normal -0.0 -0.0 1.0
outer loop
vertex 2.04028621520939 2.59369083740266 2.0
vertex 2.59369083740266 -2.04028621520939 2.0
vertex 2.64206173412004 1.97724803530022 2.0
endloop
endfacet
facet normal -0.0 -0.0 1.0
outer loop
vertex 2.64206173412004 1.97724803530022 2.0
vertex 2.59369083740266 -2.04028621520939 2.0
vertex 3.03337789521288 -1.29946856246461 2.0
endloop
endfacet
facet normal -0.0 -0.0 1.0
outer loop
vertex 2.64206173412004 1.97724803530022 2.0
vertex 3.03337789521288 -1.29946856246461 2.0
vertex 3.06378511206387 1.22605904714895 2.0
endloop
endfacet
facet normal -0.0 -0.0 1.0
outer loop
vertex 3.06378511206387 1.22605904714895 2.0
vertex 3.03337789521288 -1.29946856246461 2.0
vertex 3.26634526235834 -0.470094274661206 2.0
endloop
endfacet
facet normal -0.0 -0.0 1.0
outer loop
vertex 3.06378511206387 1.22605904714895 2.0
vertex 3.26634526235834 -0.470094274661206 2.0
vertex 3.27671659776484 0.391316161092841 2.0
endloop
endfacet
facet normal 0.959389513125341 0.282084671871977 0.0
outer loop
vertex 6.71572659187739 1.97459270310384 2.0
vertex 6.99795595527437 0.169152144650628 9.29
vertex 6.99795595527437 0.169152144650628 2.0
endloop
endfacet
facet normal 0.999707993610625 0.0241645920929468 0.0
outer loop
vertex 6.99795595527437 0.169152144650628 9.29
vertex 6.71572659187739 1.97459270310384 2.0
vertex 6.71572659187739 1.97459270310384 9.29
endloop
endfacet
facet normal 0.689813354554941 0.723987248422 0.0
outer loop
vertex 4.82869348188459 5.067910738954 2.0
vertex 5.97583155950689 3.64546803200925 9.29
vertex 5.97583155950689 3.64546803200925 2.0
endloop
endfacet
facet normal 0.853690222786699 0.520781147429893 0.0
outer loop
vertex 5.97583155950689 3.64546803200925 9.29
vertex 4.82869348188459 5.067910738954 2.0
vertex 4.82869348188459 5.067910738954 9.29
endloop
endfacet
facet normal -0.853690222786699 -0.520781147429893 0.0
outer loop
vertex -5.9758315595069 -3.64546803200925 9.29
vertex -4.82869348188459 -5.067910738954 2.0
vertex -4.82869348188459 -5.067910738954 9.29
endloop
endfacet
facet normal -0.689813354554941 -0.723987248422 0.0
outer loop
vertex -4.82869348188459 -5.067910738954 2.0
vertex -5.9758315595069 -3.64546803200925 9.29
vertex -5.9758315595069 -3.64546803200925 2.0
endloop
endfacet
facet normal 0.0241645920929462 -0.999707993610625 0.0
outer loop
vertex 0.169152144650623 -6.99795595527437 9.29
vertex -1.64781585292339 -6.80328618498842 2.0
vertex 0.169152144650623 -6.99795595527437 2.0
endloop
endfacet
facet normal -0.235402264703342 -0.971898026426918 0.0
outer loop
vertex -1.64781585292339 -6.80328618498842 2.0
vertex 0.169152144650623 -6.99795595527437 9.29
vertex -1.64781585292339 -6.80328618498842 9.29
endloop
endfacet
facet normal -0.877854814879646 0.478926846180733 0.0
outer loop
vertex -6.14498370415752 3.35248792326513 9.29
vertex -6.80328618498842 1.64781585292339 2.0
vertex -6.80328618498842 1.64781585292339 9.29
endloop
endfacet
facet normal -0.971898026426918 0.235402264703341 0.0
outer loop
vertex -6.80328618498842 1.64781585292339 2.0
vertex -6.14498370415752 3.35248792326513 9.29
vertex -6.14498370415752 3.35248792326513 2.0
endloop
endfacet
facet normal -0.282084671871977 0.959389513125341 0.0
outer loop
vertex -1.97459270310384 6.71572659187739 9.29
vertex -0.169152144650628 6.99795595527437 2.0
vertex -1.97459270310384 6.71572659187739 2.0
endloop
endfacet
facet normal -0.0241645920929467 0.999707993610625 0.0
outer loop
vertex -0.169152144650628 6.99795595527437 2.0
vertex -1.97459270310384 6.71572659187739 9.29
vertex -0.169152144650628 6.99795595527437 9.29
endloop
endfacet
facet normal 0.520781147429892 -0.8536902227867 0.0
outer loop
vertex 3.64546803200925 -5.9758315595069 9.29
vertex 1.97459270310383 -6.71572659187739 2.0
vertex 3.64546803200925 -5.9758315595069 2.0
endloop
endfacet
facet normal 0.282084671871976 -0.959389513125341 0.0
outer loop
vertex 1.97459270310383 -6.71572659187739 2.0
vertex 3.64546803200925 -5.9758315595069 9.29
vertex 1.97459270310383 -6.71572659187739 9.29
endloop
endfacet
facet normal 0.853690222786699 0.520781147429893 0.0
outer loop
vertex 5.97583155950689 3.64546803200925 2.0
vertex 6.71572659187739 1.97459270310384 9.29
vertex 6.71572659187739 1.97459270310384 2.0
endloop
endfacet
facet normal 0.959389513125341 0.282084671871977 0.0
outer loop
vertex 6.71572659187739 1.97459270310384 9.29
vertex 5.97583155950689 3.64546803200925 2.0
vertex 5.97583155950689 3.64546803200925 9.29
endloop
endfacet
facet normal -0.0241645920929467 0.999707993610625 0.0
outer loop
vertex -0.169152144650628 6.99795595527437 9.29
vertex 1.64781585292339 6.80328618498842 2.0
vertex -0.169152144650628 6.99795595527437 2.0
endloop
endfacet
facet normal 0.235402264703341 0.971898026426918 0.0
outer loop
vertex 1.64781585292339 6.80328618498842 2.0
vertex -0.169152144650628 6.99795595527437 9.29
vertex 1.64781585292339 6.80328618498842 9.29
endloop
endfacet
facet normal -0.723987248422 0.689813354554942 0.0
outer loop
vertex -5.067910738954 4.82869348188459 9.29
vertex -3.64546803200925 5.97583155950689 2.0
vertex -5.067910738954 4.82869348188459 2.0
endloop
endfacet
facet normal -0.520781147429893 0.853690222786699 0.0
outer loop
vertex -3.64546803200925 5.97583155950689 2.0
vertex -5.067910738954 4.82869348188459 9.29
vertex -3.64546803200925 5.97583155950689 9.29
endloop
endfacet
facet normal -0.723987248422 0.689813354554942 0.0
outer loop
vertex -5.067910738954 4.82869348188459 9.29
vertex -6.14498370415752 3.35248792326513 2.0
vertex -6.14498370415752 3.35248792326513 9.29
endloop
endfacet
facet normal -0.877854814879646 0.478926846180733 0.0
outer loop
vertex -6.14498370415752 3.35248792326513 2.0
vertex -5.067910738954 4.82869348188459 9.29
vertex -5.067910738954 4.82869348188459 2.0
endloop
endfacet
facet normal -0.478926846180733 -0.877854814879646 0.0
outer loop
vertex -3.35248792326513 -6.14498370415752 9.29
vertex -4.82869348188459 -5.067910738954 2.0
vertex -3.35248792326513 -6.14498370415752 2.0
endloop
endfacet
facet normal -0.689813354554941 -0.723987248422 0.0
outer loop
vertex -4.82869348188459 -5.067910738954 2.0
vertex -3.35248792326513 -6.14498370415752 9.29
vertex -4.82869348188459 -5.067910738954 9.29
endloop
endfacet
facet normal -0.520781147429893 0.853690222786699 0.0
outer loop
vertex -3.64546803200925 5.97583155950689 9.29
vertex -1.97459270310384 6.71572659187739 2.0
vertex -3.64546803200925 5.97583155950689 2.0
endloop
endfacet
facet normal -0.282084671871977 0.959389513125341 0.0
outer loop
vertex -1.97459270310384 6.71572659187739 2.0
vertex -3.64546803200925 5.97583155950689 9.29
vertex -1.97459270310384 6.71572659187739 9.29
endloop
endfacet
facet normal 0.235402264703341 0.971898026426918 0.0
outer loop
vertex 1.64781585292339 6.80328618498842 9.29
vertex 3.35248792326513 6.14498370415752 2.0
vertex 1.64781585292339 6.80328618498842 2.0
endloop
endfacet
facet normal 0.478926846180732 0.877854814879646 0.0
outer loop
vertex 3.35248792326513 6.14498370415752 2.0
vertex 1.64781585292339 6.80328618498842 9.29
vertex 3.35248792326513 6.14498370415752 9.29
endloop
endfacet
facet normal 0.877854814879646 -0.478926846180733 0.0
outer loop
vertex 6.14498370415752 -3.35248792326513 2.0
vertex 5.067910738954 -4.82869348188459 9.29
vertex 5.067910738954 -4.82869348188459 2.0
endloop
endfacet
facet normal 0.723987248422 -0.689813354554942 0.0
outer loop
vertex 5.067910738954 -4.82869348188459 9.29
vertex 6.14498370415752 -3.35248792326513 2.0
vertex 6.14498370415752 -3.35248792326513 9.29
endloop
endfacet
facet normal 0.478926846180732 0.877854814879646 0.0
outer loop
vertex 3.35248792326513 6.14498370415752 9.29
vertex 4.82869348188459 5.067910738954 2.0
vertex 3.35248792326513 6.14498370415752 2.0
endloop
endfacet
facet normal 0.689813354554941 0.723987248422 0.0
outer loop
vertex 4.82869348188459 5.067910738954 2.0
vertex 3.35248792326513 6.14498370415752 9.29
vertex 4.82869348188459 5.067910738954 9.29
endloop
endfacet
facet normal -0.999707993610625 -0.0241645920929462 0.0
outer loop
vertex -6.99795595527437 -0.169152144650624 9.29
vertex -6.71572659187739 -1.97459270310383 2.0
vertex -6.71572659187739 -1.97459270310383 9.29
endloop
endfacet
facet normal -0.959389513125341 -0.282084671871976 0.0
outer loop
vertex -6.71572659187739 -1.97459270310383 2.0
vertex -6.99795595527437 -0.169152144650624 9.29
vertex -6.99795595527437 -0.169152144650624 2.0
endloop
endfacet
facet normal -0.959389513125341 -0.282084671871976 0.0
outer loop
vertex -6.71572659187739 -1.97459270310383 9.29
vertex -5.9758315595069 -3.64546803200925 2.0
vertex -5.9758315595069 -3.64546803200925 9.29
endloop
endfacet
facet normal -0.853690222786699 -0.520781147429893 0.0
outer loop
vertex -5.9758315595069 -3.64546803200925 2.0
vertex -6.71572659187739 -1.97459270310383 9.29
vertex -6.71572659187739 -1.97459270310383 2.0
endloop
endfacet
facet normal 0.999707993610625 0.0241645920929468 0.0
outer loop
vertex 6.99795595527437 0.169152144650628 2.0
vertex 6.80328618498842 -1.64781585292339 9.29
vertex 6.80328618498842 -1.64781585292339 2.0
endloop
endfacet
facet normal 0.971898026426918 -0.235402264703342 0.0
outer loop
vertex 6.80328618498842 -1.64781585292339 9.29
vertex 6.99795595527437 0.169152144650628 2.0
vertex 6.99795595527437 0.169152144650628 9.29
endloop
endfacet
facet normal 0.723987248422 -0.689813354554942 0.0
outer loop
vertex 5.067910738954 -4.82869348188459 9.29
vertex 3.64546803200925 -5.9758315595069 2.0
vertex 5.067910738954 -4.82869348188459 2.0
endloop
endfacet
facet normal 0.520781147429892 -0.8536902227867 0.0
outer loop
vertex 3.64546803200925 -5.9758315595069 2.0
vertex 5.067910738954 -4.82869348188459 9.29
vertex 3.64546803200925 -5.9758315595069 9.29
endloop
endfacet
facet normal -0.971898026426918 0.235402264703341 0.0
outer loop
vertex -6.80328618498842 1.64781585292339 9.29
vertex -6.99795595527437 -0.169152144650624 2.0
vertex -6.99795595527437 -0.169152144650624 9.29
endloop
endfacet
facet normal -0.999707993610625 -0.0241645920929462 0.0
outer loop
vertex -6.99795595527437 -0.169152144650624 2.0
vertex -6.80328618498842 1.64781585292339 9.29
vertex -6.80328618498842 1.64781585292339 2.0
endloop
endfacet
facet normal -0.235402264703342 -0.971898026426918 0.0
outer loop
vertex -1.64781585292339 -6.80328618498842 9.29
vertex -3.35248792326513 -6.14498370415752 2.0
vertex -1.64781585292339 -6.80328618498842 2.0
endloop
endfacet
facet normal -0.478926846180733 -0.877854814879646 0.0
outer loop
vertex -3.35248792326513 -6.14498370415752 2.0
vertex -1.64781585292339 -6.80328618498842 9.29
vertex -3.35248792326513 -6.14498370415752 9.29
endloop
endfacet
facet normal 0.282084671871976 -0.959389513125341 0.0
outer loop
vertex 1.97459270310383 -6.71572659187739 9.29
vertex 0.169152144650623 -6.99795595527437 2.0
vertex 1.97459270310383 -6.71572659187739 2.0
endloop
endfacet
facet normal 0.0241645920929462 -0.999707993610625 0.0
outer loop
vertex 0.169152144650623 -6.99795595527437 2.0
vertex 1.97459270310383 -6.71572659187739 9.29
vertex 0.169152144650623 -6.99795595527437 9.29
endloop
endfacet
facet normal 0.971898026426918 -0.235402264703342 0.0
outer loop
vertex 6.80328618498842 -1.64781585292339 2.0
vertex 6.14498370415752 -3.35248792326513 9.29
vertex 6.14498370415752 -3.35248792326513 2.0
endloop
endfacet
facet normal 0.877854814879646 -0.478926846180733 0.0
outer loop
vertex 6.14498370415752 -3.35248792326513 9.29
vertex 6.80328618498842 -1.64781585292339 2.0
vertex 6.80328618498842 -1.64781585292339 9.29
endloop
endfacet
facet normal 0.921917391114691 0.368638660085663 0.119054030803367
outer loop
vertex -3.06378511206387 -1.22605904714894 2.0
vertex -4.13532120131035 -0.519078004776608 9.29
vertex -3.86650010655431 -1.57292166594634 9.29
endloop
endfacet
facet normal 0.985951659826722 0.118025036077753 0.118192281236036
outer loop
vertex -4.13532120131035 -0.519078004776608 9.29
vertex -3.06378511206387 -1.22605904714894 2.0
vertex -3.27671659776484 -0.39131616109284 2.0
endloop
endfacet
facet normal 0.595301703190895 -0.795204835229728 0.115174442500413
outer loop
vertex -2.49477208095445 3.31049169890295 9.29
vertex -2.59369083740266 2.04028621520939 2.0
vertex -1.97724803530022 2.64206173412004 2.0
endloop
endfacet
facet normal 0.780551328782116 -0.614281124167659 0.115751127976318
outer loop
vertex -2.59369083740266 2.04028621520939 2.0
vertex -2.49477208095445 3.31049169890295 9.29
vertex -3.27301691576662 2.55076397118621 9.29
endloop
endfacet
facet normal 0.780551328782116 -0.614281124167659 0.115751127976318
outer loop
vertex -2.59369083740266 2.04028621520939 2.0
vertex -3.82811169586222 1.61549875303465 9.29
vertex -3.03337789521288 1.29946856246461 2.0
endloop
endfacet
facet normal 0.913046180859111 -0.390868998782594 0.116482176358807
outer loop
vertex -3.82811169586222 1.61549875303465 9.29
vertex -2.59369083740266 2.04028621520939 2.0
vertex -3.27301691576662 2.55076397118621 9.29
endloop
endfacet
endsolid holder_mod
